PathFileType	4	(X/Y/Z)	Patient4_TMGait_0pt4_03_left_10.trc.trc
DataRate	CameraRate	NumFrames	NumMarkers	Units	OrigDataRate	OrigDataStartFrame	OrigNumFrames
75.675675675676	75.675675675676	4	33	mm	75.675675675676	36	       141
Frame#	Time	Sacral			L.Shoulder			Chest			R.Shoulder			Neck			R.ASIS			L.ASIS			R.Thigh.Superior			R.Thigh.Lateral			R.Thigh.Inferior			R.Patella			L.Thigh.Superior			L.Thigh.Lateral			L.Thigh.Inferior			L.Patella			L.Shank.Superior			L.Shank.Lateral			L.Shank.Inferior			R.Shank.Superior			R.Shank.Lateral			R.Shank.Inferior			R.Heel			R.Midfoot.Superior			R.Midfoot.Lateral			R.Toe			L.Heel			L.Midfoot.Lateral			L.Midfoot.Superior			L.Toe			L.Elbow			L.Wrist			R.Elbow			R.Wrist			
		X1	Y1	Z1	X2	Y2	Z2	X3	Y3	Z3	X4	Y4	Z4	X5	Y5	Z5	X6	Y6	Z6	X7	Y7	Z7	X8	Y8	Z8	X9	Y9	Z9	X10	Y10	Z10	X11	Y11	Z11	X12	Y12	Z12	X13	Y13	Z13	X14	Y14	Z14	X15	Y15	Z15	X16	Y16	Z16	X17	Y17	Z17	X18	Y18	Z18	X19	Y19	Z19	X20	Y20	Z20	X21	Y21	Z21	X22	Y22	Z22	X23	Y23	Z23	X24	Y24	Z24	X25	Y25	Z25	X26	Y26	Z26	X27	Y27	Z27	X28	Y28	Z28	X29	Y29	Z29	X30	Y30	Z30	X31	Y31	Z31	X32	Y32	Z32	X33	Y33	Z33	

36	13.182500000000	832.911325029241	1007.587879569189	472.655451723662	984.571354211186	1427.416796851708	262.338180432416	1108.940912704675	1366.867990791952	410.851484941957	1047.395751886171	1444.353077458774	592.091371638981	978.931275388815	1492.581337808878	418.958500900575	1068.246952485314	939.109723195940	569.909473967278	1033.333044901568	959.512559488658	297.681324612104	1079.458606281696	727.335883435181	547.625418207270	989.319478910798	627.772380859338	618.341857763919	1055.383699433686	562.464470358380	539.937679160164	1043.083546940792	464.298991144019	557.690165213699	1102.668764164553	762.202188192757	328.467969658662	1029.730587438881	637.675626450005	264.957061743532	1125.205585091444	569.503200572666	325.020451338659	1133.837999937572	499.021899778512	331.304141493275	1110.191730243848	425.656110148462	321.405001550809	1027.005701649911	308.285783699621	267.113191330410	1085.095720184585	196.817438681478	332.298612810750	982.031141633182	389.870612443892	567.710301947929	878.454523238562	321.587156004065	634.639518880851	885.069967972015	213.774884309683	579.355426307681	706.335078040253	87.926771465575	557.889032194069	883.531863000281	102.831365976378	594.643944858029	785.680698712514	59.495921400386	630.742840827793	988.961709518248	36.975750071933	621.495292303052	965.769954231830	38.804577346531	370.462399451401	1038.863541548452	35.956578502449	289.213340422693	1121.882964229412	97.196503954904	316.370431786864	1250.594277873777	45.236091683868	286.049049034632	905.634399955076	1078.156350920244	166.683080412108	940.413971956070	817.979865207610	171.078970383703	1141.198280888409	1113.460822390940	717.618589180520	1384.320963030612	1069.169728520540	654.863652811197	
37	13.195714285714	832.687785713515	1007.985796942331	468.920383787865	985.079433831912	1428.087380628615	258.947741581682	1108.561631619200	1367.831257626327	408.281266790084	1045.721932868536	1445.280676354356	589.048666049071	978.238364971694	1493.223868437730	415.626354684811	1067.765400948663	940.056396858385	567.138169344684	1034.098761306680	960.226148015401	294.997547272044	1083.096726411391	729.006623481768	544.971864714828	995.503016306318	627.969117376185	616.062370652692	1063.504328880545	563.496509498126	537.985740695983	1052.383147957845	463.722899240275	557.229782111107	1102.450276888075	761.629801602601	324.947376605867	1027.682981132415	637.441605106338	262.914970307288	1122.844645746814	568.737970302873	322.721370287618	1130.978657468392	498.500358425349	329.738527098809	1107.078231804464	425.180902999064	320.139533529211	1023.453904374235	308.038915987020	266.174556089699	1080.747609321259	196.571997488266	331.910257266456	989.019392084587	390.198034455986	567.224905867206	882.830638248626	325.428279754195	633.588511885869	887.061004535382	216.963653123663	579.505810835730	704.701508758411	97.156313451150	558.082948864972	882.224730206558	104.577245692138	594.980857784486	782.687959540104	65.173667151658	630.793448287177	984.151468418625	36.553806221744	621.429992305070	960.541306284507	38.829696719150	370.397312730472	1033.627471942284	35.913859659867	289.148904622406	1116.720238594158	97.104881614254	316.308736583869	1245.432021264154	44.900624706639	285.971262041023	912.620665058058	1077.892705546260	160.418100461998	955.851631613421	818.868326992415	164.247305747882	1134.329011238008	1112.647498022441	714.872284781235	1375.285427377489	1053.560465709831	653.632786137543	
38	13.208928571429	832.234284839102	1008.225628211019	465.246911057640	985.642511164327	1428.664023947483	255.655885206931	1108.113295094288	1368.628137759311	405.875366729889	1043.889339411028	1445.971399266218	586.165636767422	977.502002167844	1493.726334973440	412.437618925380	1067.097961824319	940.841480613495	564.461221934790	1034.688741239783	960.798455025646	292.422459092084	1087.075463229853	730.782169565191	542.407881031808	1002.205055104613	628.183217392100	613.867893577781	1072.155444481654	564.679756662686	536.074000348095	1062.234184837312	463.395066404480	556.621946161161	1101.927601882437	760.916376827778	321.688616250051	1025.606246236368	637.192990193925	260.860558250934	1120.339164866130	567.972298669883	320.589604412729	1127.958289821673	497.920404755163	328.176775326652	1103.810835629824	424.639973245411	318.852376693289	1019.733965981380	307.716892995244	265.245331224466	1076.278072945754	196.269797393177	331.520362689924	996.669912173217	390.685773331126	566.633523193381	888.021572729716	329.549348175771	632.520781270144	889.699437511355	220.530022887381	579.609933125744	703.805539503578	107.362784267275	558.252499535809	881.329997565384	106.702494746076	595.261047165713	780.147691171334	71.708951099364	630.851407098856	979.373288649001	36.029871438898	621.399307309742	955.212397583057	38.819906538664	370.357930192569	1028.287332067079	35.840399108574	289.099259253970	1111.459210940275	96.964519110429	316.276104259217	1240.172257591016	44.528515538450	285.919574885580	919.684416895683	1077.770344218365	154.110467432658	971.849954925599	820.251603109781	157.482712076532	1127.174493524256	1111.652105250366	712.221209892798	1365.087567806592	1037.624457956911	652.728381253871	
39	13.222142857143	831.561559783849	1008.281339042510	461.679703014640	986.221368547075	1429.118039945017	252.497950539056	1107.589761857827	1369.234689244084	403.643817985708	1041.927923009815	1446.408229174155	583.463787758582	976.730771425467	1494.077886053373	409.408073738243	1066.263621580972	941.443990295917	561.882512895224	1035.072296124098	961.226281753172	289.943966763859	1091.321793021962	732.671715273353	539.944686044163	1009.312082846163	628.455721217068	611.760453159679	1081.198728243226	566.046736121945	534.212945926358	1072.486950946352	463.362295531487	555.838356241899	1101.133736939860	760.134371807538	318.753578928185	1023.610917928265	636.953973456819	258.787027424529	1117.790554859078	567.234961029146	318.621319004156	1124.881234318476	497.296333356461	326.611696946424	1100.487248769150	424.040020127765	317.542681411508	1015.942545941320	307.338920913543	264.301797036054	1071.745967536280	195.920175489547	331.118490332030	1004.859369260358	391.368002614994	565.896706603838	893.955093781618	333.931362121447	631.434147061425	892.933718534062	224.477888642629	579.636412147580	703.690168416300	118.489594549269	558.377379543068	880.837162724307	109.274958793563	595.465900323356	778.109887601201	79.111656944135	630.903549279449	974.652030514090	35.375643076138	621.407240864094	949.825430271457	38.784993911065	370.326514013893	1022.887461404715	35.750383400415	289.048640204829	1106.137290695240	96.799600490192	316.253874472267	1234.853974683986	44.153867498530	285.879911227999	926.832407901322	1077.763486264353	147.787654108575	988.316659693242	822.140243432054	150.814036836269	1119.689798218914	1110.426607456965	709.665742929671	1353.662347109606	1021.495043530504	652.204621652496	
